<?xml version="1.0" standalone="no"?>
<!DOCTYPE svg PUBLIC "-//W3C//DTD SVG 20010904//EN"
 "http://www.w3.org/TR/2001/REC-SVG-20010904/DTD/svg10.dtd">
<svg version="1.0" xmlns="http://www.w3.org/2000/svg"
 width="52.000000pt" height="52.000000pt" viewBox="0 0 52.000000 52.000000"
 preserveAspectRatio="xMidYMid meet">

<g transform="translate(0.000000,52.000000) scale(0.100000,-0.100000)"
fill="#000000" stroke="none">
<path d="M207 379 c-10 -6 -22 -22 -27 -35 -7 -16 -17 -24 -35 -24 -15 0 -31
-9 -41 -25 -9 -13 -25 -27 -35 -30 -29 -9 -52 -51 -45 -79 13 -54 21 -56 236
-56 215 0 223 2 236 56 6 25 -18 74 -36 74 -6 0 -10 11 -10 25 0 39 -35 68
-77 63 -28 -3 -41 1 -59 19 -25 25 -75 30 -107 12z m105 -29 c15 -20 25 -27
32 -20 18 18 64 11 80 -12 22 -32 20 -42 -11 -56 -20 -8 -22 -10 -5 -6 28 7
68 -17 77 -46 4 -13 0 -31 -9 -45 l-16 -25 -200 0 -200 0 -16 25 c-22 34 -6
72 36 88 17 7 30 19 30 29 0 19 29 32 53 23 10 -4 18 1 22 17 20 65 88 80 127
28z"/>
<path d="M234 308 l-19 -23 23 19 c22 19 22 19 45 0 l22 -19 -19 23 c-11 12
-22 22 -26 22 -4 0 -15 -10 -26 -22z"/>
<path d="M235 280 c-4 -6 -11 -8 -16 -5 -5 4 -9 1 -9 -4 0 -16 16 -13 30 4 7
8 10 15 7 15 -3 0 -9 -5 -12 -10z"/>
<path d="M279 278 c15 -21 31 -23 31 -6 0 6 -3 8 -7 5 -3 -4 -13 -1 -22 6 -14
11 -14 10 -2 -5z"/>
<path d="M139 233 c-13 -16 -12 -17 3 -5 9 8 23 10 29 6 8 -4 9 -3 5 4 -10 17
-21 15 -37 -5z"/>
<path d="M86 204 c-9 -24 -2 -26 12 -4 7 11 8 20 3 20 -5 0 -12 -7 -15 -16z"/>
</g>
</svg>
