<?xml version="1.0" standalone="no"?>
<!DOCTYPE svg PUBLIC "-//W3C//DTD SVG 20010904//EN"
 "http://www.w3.org/TR/2001/REC-SVG-20010904/DTD/svg10.dtd">
<svg version="1.0" xmlns="http://www.w3.org/2000/svg"
 width="62.000000pt" height="62.000000pt" viewBox="0 0 62.000000 62.000000"
 preserveAspectRatio="xMidYMid meet">

<g transform="translate(0.000000,62.000000) scale(0.100000,-0.100000)"
fill="#000000" stroke="none">
<path d="M219 580 c-36 -4 -85 -18 -107 -29 -64 -32 -72 -58 -72 -218 1 -169
8 -206 54 -251 34 -35 37 -35 151 -45 143 -12 231 0 280 37 47 36 58 94 53
278 -3 140 -4 148 -28 174 -14 14 -38 32 -55 39 -40 17 -193 26 -276 15z m252
-20 c19 -5 48 -24 65 -41 l29 -30 0 -167 c0 -183 -6 -207 -58 -246 -26 -19
-42 -21 -198 -21 l-169 0 -37 38 c-36 36 -38 41 -45 125 -11 154 -9 241 7 272
17 33 61 60 115 71 54 11 251 10 291 -1z"/>
<path d="M218 531 c-62 -9 -101 -29 -119 -62 -14 -27 -15 -232 0 -285 14 -51
49 -84 98 -93 21 -4 88 -4 148 -1 173 10 185 25 185 221 0 133 -10 180 -43
207 -20 17 -186 24 -269 13z m265 -31 c26 -24 36 -80 37 -198 0 -120 -14 -167
-57 -183 -15 -6 -85 -13 -154 -16 l-126 -6 -32 29 c-40 36 -50 79 -51 206 0
110 8 140 45 164 52 34 304 37 338 4z"/>
<path d="M422 478 c-18 -18 -15 -36 9 -48 15 -9 24 -8 35 1 20 16 18 36 -5 49
-24 13 -24 13 -39 -2z m38 -23 c0 -8 -7 -15 -15 -15 -8 0 -15 7 -15 15 0 8 7
15 15 15 8 0 15 -7 15 -15z"/>
<path d="M222 422 c-29 -27 -52 -84 -52 -130 0 -90 123 -149 213 -100 34 18
57 70 57 129 0 47 -4 59 -27 81 -41 37 -66 48 -116 48 -35 0 -51 -6 -75 -28z
m132 4 c53 -22 76 -53 76 -103 0 -83 -44 -133 -118 -133 -57 0 -100 24 -117
65 -12 28 -12 41 -1 86 23 89 80 119 160 85z"/>
<path d="M258 380 c-17 -12 -30 -35 -34 -57 -6 -32 -3 -40 25 -65 62 -55 151
-23 151 55 0 68 -88 110 -142 67z m112 -27 c25 -32 20 -69 -12 -95 -30 -26
-65 -22 -99 12 -32 32 -33 57 -1 93 25 28 86 23 112 -10z"/>
</g>
</svg>
