<?xml version="1.0" standalone="no"?>
<!DOCTYPE svg PUBLIC "-//W3C//DTD SVG 20010904//EN"
 "http://www.w3.org/TR/2001/REC-SVG-20010904/DTD/svg10.dtd">
<svg version="1.0" xmlns="http://www.w3.org/2000/svg"
 width="32.000000pt" height="32.000000pt" viewBox="0 0 32.000000 32.000000"
 preserveAspectRatio="xMidYMid meet">

<g transform="translate(0.000000,32.000000) scale(0.100000,-0.100000)"
fill="#000000" stroke="none">
<path d="M0 160 l0 -120 79 0 c44 0 83 4 86 10 4 6 -24 10 -77 10 l-83 1 50
44 c44 39 52 42 66 29 20 -18 63 -18 79 1 11 13 19 9 60 -25 26 -22 51 -40 54
-40 3 0 6 47 6 105 l0 105 -160 0 -160 0 0 -120z m245 35 c-38 -36 -76 -65
-85 -65 -8 0 -46 29 -85 65 l-70 64 155 0 155 0 -70 -64z m-189 -2 c18 -16 34
-31 34 -35 0 -3 -18 -21 -40 -38 l-40 -32 0 66 c0 36 2 66 6 66 3 0 21 -12 40
-27z m254 -39 l0 -66 -40 32 c-22 17 -40 34 -40 36 0 7 64 63 73 64 4 0 7 -30
7 -66z"/>
<path d="M184 49 c-10 -17 13 -36 27 -22 12 12 4 33 -11 33 -5 0 -12 -5 -16
-11z"/>
<path d="M234 49 c-10 -17 13 -36 27 -22 12 12 4 33 -11 33 -5 0 -12 -5 -16
-11z"/>
<path d="M284 49 c-10 -17 13 -36 27 -22 12 12 4 33 -11 33 -5 0 -12 -5 -16
-11z"/>
</g>
</svg>
