<?xml version="1.0" standalone="no"?>
<!DOCTYPE svg PUBLIC "-//W3C//DTD SVG 20010904//EN"
 "http://www.w3.org/TR/2001/REC-SVG-20010904/DTD/svg10.dtd">
<svg version="1.0" xmlns="http://www.w3.org/2000/svg"
 width="32.000000pt" height="32.000000pt" viewBox="0 0 32.000000 32.000000"
 preserveAspectRatio="xMidYMid meet">

<g transform="translate(0.000000,32.000000) scale(0.100000,-0.100000)"
fill="#000000" stroke="none">
<path d="M107 280 c-39 -12 -53 -26 -79 -76 -18 -36 -19 -48 -10 -69 6 -14 16
-25 22 -25 5 0 10 -11 10 -23 0 -44 28 -57 122 -57 109 0 123 12 113 93 -5 36
-3 57 4 61 17 11 13 51 -6 68 -40 34 -116 46 -176 28z m141 -20 c35 -16 43
-24 40 -42 -3 -24 -34 -36 -50 -20 -6 6 0 8 19 6 16 -2 20 -1 8 2 -11 4 -28
15 -38 25 -24 26 -90 26 -114 0 -10 -10 -27 -21 -38 -25 -12 -3 -8 -4 8 -2 19
2 25 0 19 -6 -16 -16 -47 -4 -50 20 -3 18 5 26 40 42 55 25 101 25 156 0z
m-55 -27 c-13 -2 -33 -2 -45 0 -13 2 -3 4 22 4 25 0 35 -2 23 -4z m27 -25 c0
-9 -17 -13 -50 -13 -33 0 -50 4 -50 13 0 8 17 12 50 12 33 0 50 -4 50 -12z
m-160 -49 c0 -10 -5 -19 -11 -19 -5 0 -7 -6 -3 -12 5 -9 2 -9 -9 1 -17 13 -23
42 -11 54 11 11 34 -5 34 -24z m53 -7 c-6 -46 14 -72 57 -72 43 0 63 26 57 72
-6 41 -4 43 23 28 12 -6 20 -26 25 -60 10 -74 2 -80 -109 -78 l-91 2 70 5 70
5 -75 6 -75 5 3 50 c1 33 8 54 19 63 27 19 31 15 26 -26z m95 26 c15 -15 15
-61 0 -76 -15 -15 -61 -15 -76 0 -15 15 -15 61 0 76 7 7 24 12 38 12 14 0 31
-5 38 -12z"/>
<path d="M138 263 c6 -2 18 -2 25 0 6 3 1 5 -13 5 -14 0 -19 -2 -12 -5z"/>
<path d="M188 263 c7 -3 16 -2 19 1 4 3 -2 6 -13 5 -11 0 -14 -3 -6 -6z"/>
<path d="M32 160 c0 -14 2 -19 5 -12 2 6 2 18 0 25 -3 6 -5 1 -5 -13z"/>
<path d="M160 140 c0 -5 5 -10 10 -10 6 0 10 5 10 10 0 6 -4 10 -10 10 -5 0
-10 -4 -10 -10z"/>
</g>
</svg>
