<?xml version="1.0" standalone="no"?>
<!DOCTYPE svg PUBLIC "-//W3C//DTD SVG 20010904//EN"
 "http://www.w3.org/TR/2001/REC-SVG-20010904/DTD/svg10.dtd">
<svg version="1.0" xmlns="http://www.w3.org/2000/svg"
 width="32.000000pt" height="32.000000pt" viewBox="0 0 32.000000 32.000000"
 preserveAspectRatio="xMidYMid meet">

<g transform="translate(0.000000,32.000000) scale(0.100000,-0.100000)"
fill="#000000" stroke="none">
<path d="M117 304 c-17 -9 -30 -26 -34 -45 -5 -26 -9 -29 -44 -29 l-39 0 0
-115 0 -115 160 0 160 0 0 115 0 115 -40 0 c-31 0 -40 4 -40 18 -1 22 -19 45
-47 60 -28 15 -42 15 -76 -4z m88 -19 c14 -13 25 -34 25 -45 0 -21 -59 -130
-70 -130 -13 0 -70 108 -70 132 0 30 41 68 72 68 10 0 30 -11 43 -25z m-152
-72 l-33 -4 0 -95 0 -94 140 0 140 0 0 94 0 95 -32 4 c-32 4 -32 4 5 5 l37 2
0 -105 0 -105 -150 0 -150 0 0 105 0 105 38 -2 c36 -1 36 -1 5 -5z m57 -48
c12 -19 18 -40 14 -46 -4 -8 -3 -9 4 -5 7 4 14 -3 18 -19 7 -28 24 -34 24 -8
0 9 14 38 31 65 25 39 36 48 60 48 l29 0 0 -85 0 -85 -130 0 -130 0 0 85 0 85
29 0 c23 0 34 -8 51 -35z"/>
<path d="M130 265 c-26 -32 13 -81 48 -59 9 6 18 20 19 30 2 14 0 13 -7 -4 -7
-16 -17 -22 -32 -20 -29 4 -36 37 -12 55 10 7 13 13 7 13 -6 0 -16 -7 -23 -15z"/>
<path d="M150 240 c0 -5 5 -10 10 -10 6 0 10 5 10 10 0 6 -4 10 -10 10 -5 0
-10 -4 -10 -10z"/>
</g>
</svg>
