<?xml version="1.0" standalone="no"?>
<!DOCTYPE svg PUBLIC "-//W3C//DTD SVG 20010904//EN"
 "http://www.w3.org/TR/2001/REC-SVG-20010904/DTD/svg10.dtd">
<svg version="1.0" xmlns="http://www.w3.org/2000/svg"
 width="52.000000pt" height="52.000000pt" viewBox="0 0 52.000000 52.000000"
 preserveAspectRatio="xMidYMid meet">
<metadata>
Created by potrace 1.16, written by Peter Selinger 2001-2019
</metadata>
<g transform="translate(0.000000,52.000000) scale(0.100000,-0.100000)"
fill="#000000" stroke="none">
<path d="M160 410 c0 -16 -8 -19 -62 -22 l-63 -3 0 -155 0 -155 225 0 225 0 0
155 0 155 -62 3 c-55 3 -63 6 -63 22 0 19 -7 20 -100 20 -93 0 -100 -1 -100
-20z m180 -20 c0 -18 7 -20 65 -20 l65 0 0 -135 0 -135 -210 0 -210 0 0 135 0
135 65 0 c58 0 65 2 65 20 0 18 7 20 80 20 73 0 80 -2 80 -20z"/>
<path d="M229 370 c-69 -20 -99 -60 -99 -130 0 -78 52 -130 130 -130 81 0 130
49 130 130 0 92 -77 154 -161 130z m107 -54 c28 -28 34 -41 33 -72 -1 -24 -3
-30 -6 -16 -6 30 -15 27 -33 -11 -8 -17 -27 -39 -42 -47 -25 -13 -31 -13 -55
0 -15 9 -34 28 -43 43 -13 24 -13 30 0 55 8 15 30 34 47 42 18 8 33 18 33 23
0 15 -48 6 -76 -14 l-29 -21 28 26 c43 39 99 36 143 -8z"/>
</g>
</svg>
