<?xml version="1.0" standalone="no"?>
<!DOCTYPE svg PUBLIC "-//W3C//DTD SVG 20010904//EN"
 "http://www.w3.org/TR/2001/REC-SVG-20010904/DTD/svg10.dtd">
<svg version="1.0" xmlns="http://www.w3.org/2000/svg"
 width="52.000000pt" height="52.000000pt" viewBox="0 0 52.000000 52.000000"
 preserveAspectRatio="xMidYMid meet">
<metadata>
Created by potrace 1.16, written by Peter Selinger 2001-2019
</metadata>
<g transform="translate(0.000000,52.000000) scale(0.100000,-0.100000)"
fill="#000000" stroke="none">
<path d="M167 376 c-66 -24 -67 -27 -67 -146 0 -83 3 -110 15 -120 8 -7 15
-25 15 -40 0 -49 31 -65 130 -65 99 0 130 16 130 65 0 15 7 33 15 40 13 11 15
34 13 123 l-3 111 -34 20 c-43 25 -161 32 -214 12z"/>
</g>
</svg>
