<?xml version="1.0" standalone="no"?>
<!DOCTYPE svg PUBLIC "-//W3C//DTD SVG 20010904//EN"
 "http://www.w3.org/TR/2001/REC-SVG-20010904/DTD/svg10.dtd">
<svg version="1.0" xmlns="http://www.w3.org/2000/svg"
 width="52.000000pt" height="52.000000pt" viewBox="0 0 52.000000 52.000000"
 preserveAspectRatio="xMidYMid meet">
<metadata>
Created by potrace 1.16, written by Peter Selinger 2001-2019
</metadata>
<g transform="translate(0.000000,52.000000) scale(0.100000,-0.100000)"
fill="#000000" stroke="none">
<path d="M108 513 c-61 -7 -62 -11 -62 -254 0 -188 2 -222 16 -236 29 -28 354
-28 393 1 13 9 17 37 19 151 2 77 1 180 -2 228 -4 76 -8 89 -26 99 -20 11
-262 18 -338 11z m307 -36 c20 -4 26 -38 27 -144 0 -42 0 -104 0 -145 0 -18
-2 -58 -4 -88 l-3 -55 -40 -6 c-57 -9 -295 -3 -306 8 -11 11 -18 278 -10 368
6 59 6 60 41 66 37 6 262 3 295 -4z"/>
<path d="M100 260 l0 -200 160 0 160 0 0 200 0 200 -160 0 -160 0 0 -200z
m290 26 l0 -144 -40 19 c-43 21 -48 34 -25 65 9 12 14 42 15 81 0 58 -2 63
-31 84 -35 25 -95 21 -116 -8 -17 -23 -16 -132 2 -163 8 -14 14 -29 15 -33 0
-7 -60 -37 -75 -37 -3 0 -5 63 -5 140 l0 140 130 0 130 0 0 -144z m-97 79 c15
-11 18 -23 14 -62 -3 -26 -10 -60 -17 -75 -19 -41 -6 -72 40 -93 84 -38 74
-45 -70 -45 -144 0 -154 7 -70 45 49 22 60 52 36 101 -22 47 -21 120 2 133 23
14 44 13 65 -4z"/>
</g>
</svg>
