<?xml version="1.0" standalone="no"?>
<!DOCTYPE svg PUBLIC "-//W3C//DTD SVG 20010904//EN"
 "http://www.w3.org/TR/2001/REC-SVG-20010904/DTD/svg10.dtd">
<svg version="1.0" xmlns="http://www.w3.org/2000/svg"
 width="52.000000pt" height="52.000000pt" viewBox="0 0 52.000000 52.000000"
 preserveAspectRatio="xMidYMid meet">
<metadata>
Created by potrace 1.16, written by Peter Selinger 2001-2019
</metadata>
<g transform="translate(0.000000,52.000000) scale(0.100000,-0.100000)"
fill="#000000" stroke="none">
<path d="M182 462 c-23 -7 -12 -22 17 -22 l28 0 -16 -33 c-14 -30 -20 -34 -58
-34 -28 0 -43 5 -43 13 0 15 27 44 41 44 5 0 9 5 9 10 0 6 -4 10 -10 10 -14 0
-60 -49 -60 -64 0 -7 -9 -25 -20 -39 -25 -31 -25 -40 -2 -35 10 2 24 -7 34
-23 16 -26 16 -29 -1 -63 -14 -26 -21 -32 -30 -23 -6 6 -11 19 -11 29 0 10 -7
18 -15 18 -8 0 -15 -2 -15 -5 0 -15 42 -85 50 -85 6 0 10 -8 10 -19 0 -24 37
-71 56 -71 8 0 14 -4 14 -8 0 -5 34 -9 75 -9 66 0 96 8 64 19 -7 2 -5 15 6 38
15 33 19 35 56 32 21 -2 39 -7 39 -11 0 -13 -39 -49 -60 -56 -11 -3 -20 -11
-20 -16 0 -12 3 -11 37 3 37 17 51 31 68 70 9 18 25 45 37 60 12 15 19 31 15
35 -4 4 -15 -3 -24 -14 -17 -20 -17 -20 -38 11 l-21 31 20 34 c17 29 21 32 31
17 22 -29 37 -19 20 14 -9 17 -20 30 -25 30 -6 0 -10 8 -10 18 0 10 -15 35
-34 56 -34 37 -36 37 -118 40 -46 1 -90 0 -96 -2z"/>
</g>
</svg>
